<?xml version="1.0" standalone="no"?><!DOCTYPE svg PUBLIC "-//W3C//DTD SVG 1.1//EN" "http://www.w3.org/Graphics/SVG/1.1/DTD/svg11.dtd"><svg t="1743145751375" class="icon" viewBox="0 0 1024 1024" version="1.1" xmlns="http://www.w3.org/2000/svg" p-id="9137" id="mx_n_1743145751376" xmlns:xlink="http://www.w3.org/1999/xlink" width="200" height="200"><path d="M246.784 451.584h113.664v336.384H246.784z" fill="#17A2B8" p-id="9138" data-spm-anchor-id="a313x.search_index.0.i10.5ac83a81bGLCe6" class=""></path><path d="M684.032 800.256H360.96c-7.168 0-12.8-5.632-12.8-12.8V451.584c0-6.656 5.12-12.288 11.776-12.8C486.4 427.008 506.88 299.52 506.88 298.496v-0.512c5.12-25.6 27.648-74.24 77.824-74.24 69.632 0 74.752 67.072 76.288 92.672 3.584 51.712-7.68 101.888-14.848 127.488h68.608c2.56 0 52.224 2.048 71.68 61.44 23.552 73.216-78.848 267.264-91.136 288.768-2.048 3.584-6.656 6.144-11.264 6.144z m-310.272-25.6h303.104c32.768-61.44 101.888-210.944 85.504-262.144-13.312-41.472-46.08-43.52-47.616-43.52h-85.504c-4.096 0-8.192-2.048-10.24-5.632s-3.072-7.68-1.536-11.776c0-0.512 23.552-67.584 18.944-134.144-3.584-50.176-17.408-68.608-50.688-68.608-40.96 0-51.712 50.688-52.224 53.248-1.536 8.704-26.112 140.8-158.72 160.256v312.32z" fill="#17A2B8" p-id="9139"></path><path d="M360.96 800.256H246.784c-7.168 0-12.8-5.632-12.8-12.8V451.584c0-7.168 5.632-12.8 12.8-12.8h113.664c7.168 0 12.8 5.632 12.8 12.8v336.384c0.512 6.656-5.632 12.288-12.288 12.288z m-101.376-25.6H348.16V464.384H259.584v310.272z" fill="#17A2B8" p-id="9140"></path></svg>
