<?xml version="1.0" standalone="no"?><!DOCTYPE svg PUBLIC "-//W3C//DTD SVG 1.1//EN" "http://www.w3.org/Graphics/SVG/1.1/DTD/svg11.dtd"><svg t="1743565775169" class="icon" viewBox="0 0 6031 1024" version="1.1" xmlns="http://www.w3.org/2000/svg" p-id="2738" xmlns:xlink="http://www.w3.org/1999/xlink" width="1177.9296875" height="200"><path d="M223.99737 906.672529c-8.210274-0.926966-20.790534-8.177169-29.795351-15.427371-85.744399-83.890466 24.33287-180.559827 151.658336-236.508875l0-159.769293c29.795351 18.936601 46.05037 19.797355 47.010443 22.545149l97.497009-96.603149-32.510038-83.095923c285.273932-98.357764 399.986033-136.297178 631.992499-175.097346l-41.581068-38.86638 67.800976-38.767062c156.193851 51.446639 303.41599 64.953865 278.089942 195.920985 6.257024-88.525298-103.886457-122.756846-271.799812-169.767288l-32.543144 19.830461 62.305389 51.446639c-278.089942 47.904303-448.717985 102.06563-651.856067 172.515082l27.941418 72.204067-101.966312 100.211697c17.215092 4.535515 195.093337 64.126216 380.122466-65.020077 0 0 3.575442-2.747793 3.575442-3.575442-5.429375-9.037923-18.009634-18.969707-33.403899-32.476933 54.161327 3.608548 89.419159 51.446639 83.129029 101.105558l-25.326048 0c1.787721-16.255019-1.787721-33.370793-7.217096-45.189616-143.613592 104.747212-309.673014 120.10837-451.465779 70.449452l0 123.716918c-68.595519 24.365976-191.451683 100.211697-190.49161 173.342731C189.666504 884.955029 207.676139 897.568394 223.99737 906.672529z" fill="#221F20" p-id="2739"></path><path d="M804.477018 875.023245c-153.412951 77.666548-300.601985 139.971938-527.245288 148.976755-295.205716-6.389447-341.289192-202.277327-201.35036-407.236235C207.676139 410.017135 417.137456 223.167179 750.348797 106.700462c96.603149-34.363971 238.296596-73.16414 375.620058-74.918755 196.78174-1.887039 388.266529 59.52449 375.620058 248.294591-7.250202 144.408134-215.850765 348.40697-325.961139 494.702143-47.010443 64.126216-55.055187 105.607966 25.292942 102.032524 291.66338-18.903495 556.246096-120.075264 801.859106-224.756264-166.258058 112.825062-1024.860755 538.070932-1028.469303 248.261485 0.860755-37.078659 18.075846-75.878827 46.05037-117.360577 27.146875-41.547962 64.986971-84.883644 103.787139-129.146293 58.696841-66.807798 204.13126-226.610197 252.896318-322.319485 82.168957-181.519899-102.098736-190.524716-260.941062-246.473764l-67.800976 38.767062 41.581068 38.86638c-232.006466 38.833274-346.718567 76.739582-631.992499 175.097346l32.510038 83.095923-97.497009 96.603149c-2.780899-2.714688-17.181986-3.608548-47.010443-22.545149l0 159.769293c-127.325466 55.949048-237.402735 152.618409-151.658336 236.508875 9.037923 7.250202 21.585076 14.500404 29.795351 15.427371l0 0C380.158115 995.164721 805.470196 875.023245 804.477018 875.023245z" fill="#EE721B" p-id="2740"></path><path d="M5947.717392 245.646116 5947.717392 181.685429l28.305583 0c5.561799 0 9.96489 0.629013 12.812001 1.721509 3.045747 1.258026 5.296951 3.078853 7.051566 6.190812 1.887039 2.780899 2.714688 6.091494 2.714688 9.600724 0 4.469303-1.489768 8.375804-4.336879 11.454657-3.045747 3.012641-7.448838 4.932786-13.573438 5.992176 2.251204 1.05939 3.939608 2.052569 5.06521 3.078853 2.383628 2.350522 4.800362 5.131422 6.919143 8.541334l11.090492 17.380621-10.560797 0-8.309592-13.14306c-2.516052-3.972713-4.56862-6.852931-6.223918-8.905499-1.555979-2.052569-3.045747-3.409912-4.270667-4.204455-1.258026-0.794543-2.416734-1.522873-3.774078-1.853933-0.993178-0.099318-2.482946-0.198636-4.701044-0.198636l-9.733148 0L5956.192514 245.646116 5947.717392 245.646116zM5956.22562 209.759271l18.108952 0c3.807184 0 6.687401-0.397271 8.971711-1.092496 2.085675-0.860755 3.807184-2.184992 4.866574-3.873396 1.125602-1.820827 1.787721-3.542336 1.787721-5.594905 0-3.045747-1.191814-5.561799-3.310595-7.415732-2.184992-1.920145-5.628011-2.847111-10.295949-2.847111l-20.128415 0L5956.22562 209.759271z" fill="#EE721B" p-id="2741"></path><path d="M5925.271561 213.698878c0-26.683392 21.684394-48.235363 48.400892-48.235363 26.584074 0 48.268469 21.551971 48.268469 48.235363 0 26.683392-21.684394 48.400892-48.268469 48.400892C5946.989061 262.09977 5925.271561 240.38227 5925.271561 213.698878zM5973.672453 271.00527c31.549966 0 57.273286-25.72332 57.273286-57.306392 0-31.583072-25.690214-57.24018-57.273286-57.24018-31.616178 0-57.306392 25.657108-57.306392 57.24018C5916.366061 245.248844 5942.056275 271.00527 5973.672453 271.00527z" fill="#EE721B" p-id="2742"></path><path d="M2449.511449 295.17261l125.074262 0 0 321.293201-125.074262 0 0-321.293201Z" fill="#EE721B" p-id="2743"></path><path d="M2446.167749 156.458698l131.894087 0 0 87.995603-131.894087 0 0-87.995603Z" fill="#EE721B" p-id="2744"></path><path d="M2246.638215 156.458698l121.66435 0 0 459.974007-121.66435 0 0-459.974007Z" fill="#EE721B" p-id="2745"></path><path d="M5466.55558 616.432705 5466.55558 295.17261l47.374608 0 0 47.341502c13.573438-16.884032 23.803175-30.391258 40.587889-40.554783 16.98335-10.229737 34.529501-14.434192 58.167146-14.434192 23.670751 0 43.368789 4.204455 60.285927 14.434192 13.47412 10.163525 23.703857 23.670751 30.29194 40.554783 27.113769-37.244189 60.848728-54.095115 101.635253-54.095115 30.325046 0 53.962691 6.753613 74.256636 27.047557 16.98335 16.917138 23.670751 43.964696 23.670751 81.175778l0 219.790372-54.095115 0 0-202.840128c0-20.327051-0.529695-35.390256-3.972713-45.520675-3.078853-10.229737-13.010637-21.320229-20.591898-24.630823-8.806182-4.303773-19.26766-7.647473-32.90731-7.647473-23.670751 0-44.295755 4.072031-59.226536 20.260839-13.573438 16.917138-18.671753 40.587889-18.671753 74.422165l0 185.956096-53.995797 0 0-209.626847c0-23.736963-4.800362-42.772882-13.540332-54.194433-9.4683-11.222916-23.604539-16.850926-44.064013-16.850926-16.850926 0-32.807992 3.145065-44.328861 11.620187-10.229737 6.654295-22.280301 21.154699-28.239372 36.284116-6.720507 13.540332-8.607546 36.681388-8.607546 67.072646l0 165.695257L5466.55558 616.432705z" fill="#EE721B" p-id="2746"></path><path d="M4996.384942 575.944134c-13.441014 13.507226-50.718308 50.817626-118.386861 50.817626-87.896285 0-175.858782-71.111571-175.858782-172.6144 0-104.879635 84.651903-175.858782 175.858782-175.858782 64.192428 0 104.945847 37.211083 118.386861 50.751414-6.786719 13.47412-16.884032 43.964696-23.604539 54.062009-30.589894-40.587889-71.012253-50.685203-94.782322-50.685203-67.569235 0-121.763668 57.538133-121.763668 121.730562 0 64.291746 54.194433 118.453073 121.763668 118.453073 33.80117 0 71.012253-16.950244 94.782322-54.128221C4982.910822 548.797258 4992.941924 565.714397 4996.384942 575.944134z" fill="#EE721B" p-id="2747"></path><path d="M4587.427197 569.157415l46.745595 0 0 47.308396-46.745595 0 0-47.308396Z" fill="#EE721B" p-id="2748"></path><path d="M1999.700968 156.458698 1844.003706 156.458698 1603.952496 616.432705l138.614594 0 40.687207-91.306198 253.624648 0 40.620995 91.306198 148.844331 0L1999.700968 156.458698zM1827.15278 433.82031l87.995603-175.858782 77.666548 175.858782L1827.15278 433.82031z" fill="#EE721B" p-id="2749"></path><path d="M3041.445755 332.383693c-33.238369-33.370793-67.469917-47.10976-118.155119-47.10976-20.360156 0-40.819631 3.145065-54.426174 6.455659-31.119589 9.302771-67.569235 30.523682-87.796967 50.751414l0-186.055414-125.272898 0 0 389.061071c0 10.130419 0 20.194627 0 33.834276 0 10.064207 0 23.637645-3.3437 37.078659l125.17358 0c1.589085-6.091494 3.045747-13.805179 3.443018-23.571433 0-10.229737 0-33.834276 0-33.834276 14.500404 19.995991 36.41654 39.660923 68.860367 54.724128 19.59872 8.375804 52.803983 13.010637 69.754227 13.010637 50.685203 0 91.239986-16.98335 121.763668-47.374608 27.080663-30.556788 40.587889-71.078465 40.587889-125.239792C3082.033644 403.429052 3068.526418 362.874269 3041.445755 332.383693zM2933.189313 525.126507c-13.47412 16.98335-37.177977 23.670751-64.291746 23.670751-30.391258 0-50.751414-6.687401-67.569235-23.670751-13.573438-16.850926-23.670751-40.554783-23.670751-71.012253 0-33.80117 10.097313-60.848728 23.670751-77.73276 16.81782-16.950244 37.078659-26.219909 67.569235-26.219909 26.915134 0 50.817626 9.269665 64.291746 26.219909 16.98335 20.260839 23.703857 40.455465 23.703857 70.979147C2956.860064 481.228024 2950.139557 504.865669 2933.189313 525.126507z" fill="#EE721B" p-id="2750"></path><path d="M3989.169656 332.383693c-33.602535-32.74178-67.536129-47.10976-118.287543-47.10976-20.161521 0-40.654101 3.145065-54.227539 6.455659-31.152695 9.302771-67.569235 30.523682-87.995603 50.751414l0-186.055414-125.140474 0 0 389.061071c0 10.130419 0 20.194627 0 33.834276 0 10.064207 0 23.637645-3.443018 37.078659l125.272898 0c1.522873-6.091494 2.913323-13.805179 3.310595-23.571433 0-10.229737 0-33.834276 0-33.834276 14.566616 19.995991 36.515858 39.660923 68.99279 54.724128 19.664932 8.375804 52.737771 13.010637 69.654909 13.010637 50.78452 0 91.339304-16.98335 121.862985-47.374608 27.014452-30.556788 40.521677-71.078465 40.521677-125.239792C4029.691334 403.429052 4016.184108 362.874269 3989.169656 332.383693zM3880.880109 525.126507c-13.540332 16.98335-37.177977 23.670751-64.192428 23.670751-30.424364 0-50.817626-6.687401-67.569235-23.670751-13.672755-16.850926-23.736963-40.554783-23.736963-71.012253 0-33.80117 10.064207-60.848728 23.736963-77.73276 16.751608-16.950244 36.946235-26.219909 67.436811-26.219909 27.014452 0 50.78452 9.269665 64.324852 26.219909 16.884032 20.260839 23.538327 40.455465 23.538327 70.979147C3904.38533 481.228024 3897.731035 504.865669 3880.880109 525.126507z" fill="#EE721B" p-id="2751"></path><path d="M3521.713706 599.581779c0-6.720507 0-16.917138 0-23.637645L3521.713706 410.182665c0-40.521677-16.98335-71.012253-43.997802-91.339304-27.047557-20.260839-74.355954-30.424364-135.270893-30.424364-3.376806 0-10.229737 0-13.47412 0-57.505027 0-102.23116 7.647473-128.550386 23.703857-30.490576 16.917138-47.407714 43.93159-54.161327 77.832078l125.17358 0c3.376806-13.540332 24.068022-37.409718 57.505027-37.310401 3.277489 0.066212 6.819825 0 13.47412 0 20.227733 0 33.337687 4.866574 44.030908 13.573438 9.63383 8.077851 13.441014 23.736963 13.441014 40.620995 0 0 0 0 0 3.376806 0 3.443018 0 3.443018 0 3.443018l-57.471921 0c-6.654295 0-10.229737 0-13.47412 0-43.964696 0-77.865184 3.244383-98.159128 6.753613-23.703857 3.376806-39.694029 9.104135-54.095115 16.917138-16.917138 10.130419-28.00763 22.94242-37.244189 37.211083-10.130419 16.884032-13.507226 33.80117-13.507226 54.095115 0 30.45747 10.130419 54.062009 33.834276 71.012253 23.703857 16.884032 54.128221 27.179981 94.683004 27.179981 27.047557 0 50.652097-3.542336 74.455271-10.295949 27.709676-8.110957 64.192428-27.014452 74.38906-47.308396l0 6.786719c0 20.757428 6.720507 37.244189 10.163525 40.521677l114.910737 0C3525.057407 613.188322 3521.713706 606.302286 3521.713706 599.581779zM3399.916933 481.228024c0 23.637645-6.753613 43.93159-20.293945 54.128221-13.47412 10.163525-25.524684 16.652291-45.752417 20.062203-4.89968 1.158708-13.47412 1.853933-22.214089 1.853933-16.850926 0-31.483754-2.549158-41.945233-9.368983-9.004817-6.323236-15.228735-15.92396-15.228735-29.464291 0-16.950244 10.329055-29.729139 29.795351-35.390256 10.329055-2.913323 24.432188-5.925964 42.905305-7.448838 17.479939-1.555979 38.932592-1.125602 65.947043-1.125602l6.753613 0L3399.883827 481.228024z" fill="#EE721B" p-id="2752"></path><path d="M4470.364574 599.581779c0-6.720507 0-16.917138 0-23.637645L4470.364574 410.182665c0-40.521677-17.016456-71.012253-44.030908-91.339304-27.146875-20.260839-74.355954-30.424364-135.337105-30.424364-3.277489 0-10.130419 0-13.407908 0-57.438815 0-97.530115 7.448838-128.649704 23.703857-30.325046 16.917138-47.308396 43.93159-54.062009 77.832078l125.239792 0c3.310595-13.540332 24.00181-37.409718 57.438815-37.310401 3.310595 0.066212 6.687401 0 13.407908 0 20.293945 0 33.271475 4.866574 44.097119 13.573438 9.63383 8.077851 13.47412 23.736963 13.47412 40.620995 0 0 0 0 0 3.376806 0 3.443018 0 3.443018 0 3.443018l-57.571239 0c-6.720507 0-10.130419 0-13.407908 0-43.997802 0-77.89829 3.244383-98.092916 6.753613-23.770069 3.376806-39.826452 9.104135-54.161327 16.917138-16.917138 10.130419-27.974524 22.94242-37.177977 37.211083-10.229737 16.884032-13.573438 33.80117-13.573438 54.095115 0 30.45747 10.097313 54.062009 33.834276 71.012253 23.604539 16.884032 54.161327 27.179981 94.749216 27.179981 27.014452 0 50.618991-3.542336 74.38906-10.295949 27.742782-8.110957 64.159322-27.014452 74.38906-47.308396l0 6.786719c0 20.757428 6.819825 37.244189 10.163525 40.521677l114.976949 0C4473.675169 613.188322 4470.364574 606.302286 4470.364574 599.581779zM4348.567801 481.228024c0 23.637645-6.819825 43.93159-20.327051 54.128221-13.507226 10.163525-25.491578 16.652291-45.785523 20.062203-4.833468 1.158708-13.441014 1.853933-22.214089 1.853933-16.950244 0-31.483754-2.549158-41.945233-9.368983-8.971711-6.323236-15.129417-15.92396-15.129417-29.464291 0-16.950244 10.329055-29.729139 29.795351-35.390256 10.196631-2.913323 24.299764-5.925964 42.805988-7.448838 17.446833-1.555979 38.932592-1.125602 65.947043-1.125602l6.819825 0L4348.534695 481.228024z" fill="#EE721B" p-id="2753"></path><path d="M5216.142208 278.255472c-94.55058 0-172.349552 77.798972-172.349552 175.858782 0 94.683004 77.798972 172.6144 172.349552 172.6144 94.71611 0 172.515082-77.931396 172.515082-172.6144C5388.65729 356.054444 5310.891424 278.255472 5216.142208 278.255472zM5216.142208 572.567327c-67.569235 0-118.188225-54.128221-118.188225-118.453073 0-67.635447 50.618991-121.730562 118.188225-121.730562 64.357958 0 118.419967 54.095115 118.419967 121.730562C5334.595281 518.439106 5280.533272 572.567327 5216.142208 572.567327z" fill="#EE721B" p-id="2754"></path><path d="M2261.635209 876.215059l0-40.223724 102.793961 0 0 94.815428c-10.031101 9.766254-24.564612 18.340694-43.567424 25.822637-19.102131 7.34952-38.336685 11.057386-57.869193 11.057386-24.862565 0-46.480747-5.230739-64.986971-15.659112-18.440012-10.428373-32.344509-25.39226-41.547962-44.82545-9.302771-19.43319-13.937603-40.554783-13.937603-63.430992 0-24.829459 5.164527-46.878019 15.526688-66.145679 10.395267-19.26766 25.590896-34.032912 45.553781-44.328861 15.162523-7.912321 34.13223-11.851928 56.876014-11.851928 29.497397 0 52.439818 6.223918 69.092108 18.605541 16.552973 12.447836 27.213087 29.596715 31.980343 51.479745l-47.838091 8.839287c-3.376806-11.752611-9.600724-20.889852-18.804177-27.643464-9.170347-6.819825-20.724322-10.196631-34.463289-10.196631-20.889852 0-37.542142 6.654295-49.89066 19.962885-12.381624 13.374802-18.539329 33.139051-18.539329 59.35896 0 28.239372 6.257024 49.394071 18.870389 63.563415 12.580259 14.136239 29.033914 21.121593 49.360965 21.121593 10.130419 0 20.161521-1.953251 30.29194-5.859752 10.229737-3.972713 18.870389-8.73997 26.087485-14.36798l0-30.12641L2261.635209 876.181953z" fill="#58595B" p-id="2755"></path><path d="M2408.228335 963.515438l0-237.435841 45.785523 0 0 237.435841L2408.228335 963.515438z" fill="#58595B" p-id="2756"></path><path d="M2490.000021 875.089457c0-15.063205 3.707866-29.729139 11.156704-43.865378 7.51505-14.070027 18.04274-24.895671 31.68239-32.311403 13.672755-7.481944 28.90149-11.18981 45.719311-11.18981 26.120591 0 47.407714 8.475122 64.026899 25.39226 16.586079 16.850926 24.895671 38.138049 24.895671 64.026899 0 25.888849-8.375804 47.473926-25.160519 64.556594-16.784714 17.115774-37.906308 25.624002-63.36478 25.624002-15.75843 0-30.821635-3.542336-45.123404-10.627009-14.268663-7.150884-25.160519-17.579257-32.642462-31.318224C2493.707887 911.605315 2490.000021 894.787495 2490.000021 875.089457zM2536.580086 877.473085c0 17.14888 4.038925 30.192622 12.116776 39.296757 8.110957 9.104135 18.075846 13.606544 29.894669 13.606544 11.91814 0 21.783712-4.502409 29.828457-13.606544 8.011639-9.104135 11.984352-22.247195 11.984352-39.561605 0-16.850926-3.972713-29.795351-11.984352-38.965698-8.044745-9.071029-17.910317-13.573438-29.828457-13.573438-11.818823 0-21.783712 4.535515-29.894669 13.573438C2540.619011 847.379781 2536.580086 860.390417 2536.580086 877.473085z" fill="#58595B" p-id="2757"></path><path d="M2701.513907 963.515438l0-237.435841 45.752417 0 0 85.678187c14.036921-16.023278 30.689211-24.068022 49.758236-24.068022 20.922958 0 38.204261 7.647473 51.810805 22.710679 13.705861 15.261841 20.558792 36.946235 20.558792 65.31803 0 29.331868-6.985354 51.910123-20.922958 67.76787-14.036921 15.857748-31.020271 23.770069-50.916944 23.770069-9.733148 0-19.466296-2.383628-28.967702-7.283308-9.600724-4.89968-17.777893-12.149882-24.663929-21.750606l0 25.259836L2701.513907 963.482332zM2746.504886 873.699007c0 17.777893 2.747793 30.954059 8.40891 39.429181 7.912321 12.08367 18.406906 18.075846 31.483754 18.075846 10.097313 0 18.704859-4.270667 25.822637-12.878213 7.051566-8.541334 10.593903-22.015454 10.593903-40.422359 0-19.59872-3.542336-33.734958-10.726326-42.342504-7.117778-8.673758-16.321231-13.010637-27.378617-13.010637-11.02428 0-20.095309 4.204455-27.345511 12.646471C2750.113435 843.671915 2746.504886 856.517022 2746.504886 873.699007z" fill="#58595B" p-id="2758"></path><path d="M2940.07535 844.433352l-41.15069-7.614367c4.634832-16.685397 12.646471-29.033914 24.00181-37.078659 11.388445-7.978533 28.338689-12.050564 50.685203-12.050564 20.293945 0 35.456468 2.44984 45.454463 7.217096 9.997996 4.800362 16.950244 10.958068 21.022275 18.307588 4.072031 7.481944 6.1246 20.956063 6.1246 40.687207l-0.893861 53.135043c0 15.096311 0.761437 26.219909 2.251204 33.337687 1.489768 7.250202 4.237561 14.930781 8.276486 23.10795l-44.924768 0c-1.125602-3.045747-2.582264-7.481944-4.403091-13.441014-0.695225-2.648476-1.22492-4.403091-1.622191-5.263845-7.680579 7.548156-16.08949 13.176166-24.994989 16.884032-8.839287 3.740972-18.274482 5.594905-28.338689 5.594905-17.744787 0-31.715496-4.767256-41.978339-14.36798-10.196631-9.567618-15.294947-21.7175-15.294947-36.41654 0-9.600724 2.350522-18.20827 6.952249-25.822637 4.701044-7.614367 11.222916-13.374802 19.565614-17.446833 8.342698-4.038925 20.426368-7.548156 36.217904-10.560797 21.287123-4.005819 36.085481-7.680579 44.262649-11.123598l0-4.535515c0-8.806182-2.184992-15.096311-6.521871-18.837283-4.369985-3.740972-12.580259-5.561799-24.597718-5.561799-8.077851 0-14.401086 1.589085-19.035919 4.833468C2946.531009 830.661278 2942.856249 836.289289 2940.07535 844.433352zM3001.255137 881.247163c-5.826646 1.953251-15.030099 4.204455-27.67657 6.985354-12.514047 2.681582-20.82364 5.330057-24.663929 7.879215-6.025282 4.171349-8.872393 9.534512-8.872393 15.92396 0 6.29013 2.28431 11.785717 7.051566 16.486761 4.767256 4.601726 10.792538 6.886037 18.108952 6.886037 8.177169 0 15.990172-2.681582 23.472115-8.044745 5.396269-4.105137 9.037923-9.037923 10.85875-14.996993 1.092496-3.873396 1.721509-11.222916 1.721509-22.114772L3001.255137 881.247163z" fill="#58595B" p-id="2759"></path><path d="M3090.541872 963.515438l0-237.435841 45.752417 0 0 237.435841L3090.541872 963.515438z" fill="#58595B" p-id="2760"></path><path d="M3354.760423 791.496945l0 36.515858-31.053377 0 0 69.092108c0 13.970709 0.297954 22.180983 0.860755 24.432188 0.595907 2.28431 1.986357 4.237561 4.005819 5.727329 2.019463 1.456662 4.634832 2.251204 7.581262 2.251204 4.138243 0 10.163525-1.423556 18.009634-4.436197l3.972713 35.35715c-10.560797 4.56862-22.512043 6.819825-35.754421 6.819825-8.276486 0-15.5929-1.291132-22.114772-4.072031-6.588083-2.780899-11.388445-6.356342-14.500404-10.69322-3.111959-4.336879-5.197633-10.295949-6.323236-17.711681-0.960072-5.296951-1.489768-15.890854-1.489768-31.947237l0-74.852543-20.989169 0 0-36.515858 20.989169 0 0-34.463289 45.752417-26.815816 0 61.279105L3354.760423 791.463839z" fill="#58595B" p-id="2761"></path><path d="M3429.679178 963.515438l-45.752417 0 0-171.985387 42.408716 0 0 24.432188c7.217096-11.520869 13.705861-19.135236 19.532508-22.77689 5.760435-3.608548 12.282306-5.462481 19.664932-5.462481 10.329055 0 20.360156 2.880217 29.993987 8.541334l-14.003815 39.660923c-7.713685-4.965892-14.86457-7.481944-21.386441-7.481944-6.455659 0-11.851928 1.721509-16.221913 5.263845-4.535515 3.476124-7.945427 9.865572-10.461479 19.035919-2.549158 9.203453-3.774078 28.404901-3.774078 57.604345L3429.679178 963.515438z" fill="#58595B" p-id="2762"></path><path d="M3548.761264 844.433352l-41.084478-7.614367c4.56862-16.685397 12.613365-29.033914 24.00181-37.078659 11.355339-7.978533 28.272477-12.050564 50.652097-12.050564 20.393262 0 35.423362 2.44984 45.487569 7.217096 9.898678 4.800362 16.950244 10.958068 20.989169 18.307588 4.072031 7.481944 6.157706 20.956063 6.157706 40.687207l-0.893861 53.135043c0 15.096311 0.794543 26.219909 2.218098 33.337687 1.456662 7.250202 4.237561 14.930781 8.24338 23.10795l-44.858556 0c-1.22492-3.045747-2.582264-7.481944-4.336879-13.441014-0.761437-2.648476-1.357344-4.403091-1.688403-5.263845-7.746791 7.548156-16.023278 13.176166-24.961883 16.884032-8.839287 3.740972-18.3738 5.594905-28.371795 5.594905-17.744787 0-31.715496-4.767256-42.011445-14.36798-10.130419-9.567618-15.195629-21.7175-15.195629-36.41654 0-9.600724 2.28431-18.20827 6.919143-25.822637 4.634832-7.614367 11.090492-13.374802 19.565614-17.446833 8.342698-4.038925 20.426368-7.548156 36.25101-10.560797 21.254017-4.005819 35.986163-7.680579 44.229543-11.123598l0-4.535515c0-8.806182-2.218098-15.096311-6.554977-18.837283-4.403091-3.740972-12.514047-5.561799-24.4984-5.561799-8.24338 0-14.53351 1.589085-19.168342 4.833468C3555.349347 830.661278 3551.575269 836.289289 3548.761264 844.433352zM3610.040369 881.247163c-5.859752 1.953251-15.063205 4.204455-27.67657 6.985354-12.613365 2.681582-20.790534 5.330057-24.763247 7.879215-5.892858 4.171349-8.839287 9.534512-8.839287 15.92396 0 6.29013 2.317416 11.785717 7.084672 16.486761 4.800362 4.601726 10.792538 6.886037 18.142058 6.886037 8.144063 0 16.023278-2.681582 23.472115-8.044745 5.396269-4.105137 9.037923-9.037923 10.825644-14.996993 1.158708-3.873396 1.754615-11.222916 1.754615-22.114772L3610.040369 881.247163z" fill="#58595B" p-id="2763"></path><path d="M3857.540417 963.515438l-42.309398 0 0-25.259836c-7.150884 9.79936-15.394265 17.115774-24.994989 21.916136-9.534512 4.73415-19.201448 7.117778-28.90149 7.117778-19.764249 0-36.747599-7.945427-50.850732-23.836281-14.169345-15.857748-21.154699-38.104943-21.154699-66.576056 0-29.133232 6.852931-51.181792 20.49258-66.443633 13.772073-15.096311 31.086483-22.710679 52.075652-22.710679 19.234554 0 35.820633 8.044745 49.89066 24.068022l0-85.678187 45.752417 0L3857.540417 963.515438zM3735.876067 873.699007c0 18.307588 2.61537 31.583072 7.713685 39.727135 7.34952 11.851928 17.744787 17.777893 30.987165 17.777893 10.593903 0 19.565614-4.502409 26.94824-13.341696 7.448838-8.839287 11.123598-22.114772 11.123598-39.826452 0-19.664932-3.608548-33.867382-10.726326-42.474928-7.18399-8.673758-16.486761-13.010637-27.610359-13.010637-10.85875 0-20.029097 4.270667-27.378617 12.778895C3739.517721 843.969868 3735.876067 856.748763 3735.876067 873.699007z" fill="#58595B" p-id="2764"></path><path d="M4002.047869 908.559568l45.255827 7.581262c-5.826646 16.685397-14.996993 29.364974-27.643464 38.071837-12.514047 8.73997-28.272477 13.076848-47.175972 13.076848-29.828457 0-51.943228-9.733148-66.377421-29.298762-11.256021-15.626006-16.950244-35.324044-16.950244-59.193431 0-28.438007 7.448838-50.718308 22.346513-66.87401 14.831464-16.122595 33.734958-24.200446 56.511849-24.200446 25.657108 0 45.785523 8.475122 60.517668 25.39226 14.86457 16.784714 21.916136 42.574246 21.353335 77.401701l-114.182406 0c0.331059 13.540332 4.005819 24.034916 11.057386 31.583072 6.985354 7.481944 15.824642 11.222916 26.186803 11.222916 7.150884 0 13.209272-1.887039 18.009634-5.79354C3995.823951 923.523455 3999.498711 917.233326 4002.047869 908.559568zM4004.464603 862.840257c-0.231742-13.109954-3.641654-23.207268-10.163525-29.960881-6.455659-6.886037-14.301768-10.262843-23.637645-10.262843-9.96489 0-18.142058 3.608548-24.597718 10.85875-6.488765 7.18399-9.666936 16.98335-9.534512 29.39808L4004.464603 862.873363z" fill="#58595B" p-id="2765"></path><path d="M4163.472459 914.816592l45.719311-7.150884c1.920145 8.806182 5.859752 15.460477 11.785717 20.062203 5.95907 4.502409 14.235557 6.819825 24.994989 6.819825 11.653293 0 20.49258-2.151886 26.484756-6.488765 4.005819-3.012641 5.95907-7.084672 5.95907-12.116776 0-3.409912-1.092496-6.356342-3.277489-8.607546-2.218098-2.151886-7.382626-4.138243-15.261841-5.992176-36.880023-8.144063-60.219715-15.493582-70.085287-22.147878-13.705861-9.302771-20.49258-22.147878-20.49258-38.70085 0-14.831464 5.95907-27.345511 17.744787-37.509036 11.752611-10.196631 30.027093-15.294947 54.889658-15.294947 23.604539 0 41.183796 3.84029 52.638453 11.487763 11.454657 7.614367 19.333872 18.903495 23.736963 33.834276l-42.805988 7.978533c-1.920145-6.621189-5.429375-11.719505-10.593903-15.261841-5.131422-3.476124-12.447836-5.296951-22.04856-5.296951-12.050564 0-20.724322 1.688403-25.888849 5.032104-3.443018 2.416734-5.230739 5.495587-5.230739 9.203453 0 3.277489 1.522873 6.025282 4.56862 8.276486 4.105137 3.012641 18.340694 7.283308 42.640458 12.778895 24.33287 5.528693 41.283114 12.282306 50.95005 20.194627 9.435194 8.110957 14.301768 19.400084 14.301768 33.834276 0 15.692218-6.621189 29.199444-19.764249 40.521677-13.14306 11.388445-32.642462 16.98335-58.431994 16.98335-23.505221 0-42.077657-4.701044-55.750412-14.103133C4176.61552 943.751188 4167.71002 930.972293 4163.472459 914.816592z" fill="#58595B" p-id="2766"></path><path d="M4443.283911 791.496945l0 36.515858-31.086483 0 0 69.092108c0 13.970709 0.297954 22.180983 0.926966 24.432188 0.595907 2.28431 1.853933 4.237561 4.005819 5.727329 2.019463 1.456662 4.535515 2.251204 7.51505 2.251204 4.138243 0 10.163525-1.423556 17.943422-4.436197l4.072031 35.35715c-10.593903 4.56862-22.545149 6.819825-35.820633 6.819825-8.110957 0-15.5929-1.291132-22.081666-4.072031-6.521871-2.780899-11.421551-6.356342-14.500404-10.69322-3.045747-4.336879-5.098316-10.295949-6.323236-17.711681-0.960072-5.296951-1.489768-15.890854-1.489768-31.947237l0-74.852543-20.889852 0 0-36.515858 20.889852 0 0-34.463289 45.752417-26.815816 0 61.279105L4443.283911 791.463839z" fill="#58595B" p-id="2767"></path><path d="M4508.03914 844.433352l-41.084478-7.614367c4.634832-16.685397 12.679577-29.033914 24.134234-37.078659 11.322233-7.978533 28.17316-12.050564 50.552779-12.050564 20.426368 0 35.555785 2.44984 45.520675 7.217096 9.96489 4.800362 16.884032 10.958068 20.956063 18.307588 4.105137 7.481944 6.157706 20.956063 6.157706 40.687207l-0.860755 53.135043c0 15.096311 0.728331 26.219909 2.251204 33.337687 1.456662 7.250202 4.270667 14.930781 8.276486 23.10795l-44.924768 0c-1.191814-3.045747-2.681582-7.481944-4.369985-13.441014-0.761437-2.648476-1.291132-4.403091-1.555979-5.263845-7.846109 7.548156-16.188807 13.176166-25.028095 16.884032-8.872393 3.740972-18.340694 5.594905-28.371795 5.594905-17.711681 0-31.748602-4.767256-41.978339-14.36798-10.229737-9.567618-15.328053-21.7175-15.328053-36.41654 0-9.600724 2.350522-18.20827 6.952249-25.822637 4.634832-7.614367 11.222916-13.374802 19.631826-17.446833 8.309592-4.038925 20.360156-7.548156 36.151692-10.560797 21.254017-4.005819 36.085481-7.680579 44.229543-11.123598l0-4.535515c0-8.806182-2.151886-15.096311-6.389447-18.837283-4.403091-3.740972-12.679577-5.561799-24.597718-5.561799-8.24338 0-14.566616 1.589085-19.102131 4.833468C4514.594117 830.661278 4510.919357 836.289289 4508.03914 844.433352zM4569.285139 881.247163c-5.727329 1.953251-14.930781 4.204455-27.577253 6.985354-12.613365 2.681582-20.889852 5.330057-24.730141 7.879215-5.95907 4.171349-8.971711 9.534512-8.971711 15.92396 0 6.29013 2.416734 11.785717 7.18399 16.486761 4.767256 4.601726 10.69322 6.886037 18.075846 6.886037 8.210274 0 16.023278-2.681582 23.505221-8.044745 5.396269-4.105137 9.071029-9.037923 10.759432-14.996993 1.191814-3.873396 1.754615-11.222916 1.754615-22.114772L4569.285139 881.247163z" fill="#58595B" p-id="2768"></path><path d="M4702.768312 963.515438l-45.686205 0 0-171.985387 42.276292 0 0 24.432188c7.250202-11.520869 13.772073-19.135236 19.59872-22.77689 5.79354-3.608548 12.315412-5.462481 19.698038-5.462481 10.329055 0 20.327051 2.880217 29.960881 8.541334l-14.036921 39.660923c-7.680579-4.965892-14.765252-7.481944-21.386441-7.481944-6.323236 0-11.785717 1.721509-16.122595 5.263845-4.469303 3.476124-7.912321 9.865572-10.494585 19.035919-2.44984 9.203453-3.774078 28.404901-3.774078 57.604345L4702.801417 963.515438z" fill="#58595B" p-id="2769"></path><path d="M4867.669026 791.496945l0 36.515858-31.119589 0 0 69.092108c0 13.970709 0.331059 22.180983 0.860755 24.432188 0.562801 2.28431 1.953251 4.237561 3.972713 5.727329 2.118781 1.456662 4.634832 2.251204 7.614367 2.251204 4.138243 0 10.130419-1.423556 18.009634-4.436197l3.939608 35.35715c-10.494585 4.56862-22.445831 6.819825-35.754421 6.819825-8.144063 0-15.526688-1.291132-22.04856-4.072031-6.654295-2.780899-11.421551-6.356342-14.500404-10.69322-3.111959-4.336879-5.164527-10.295949-6.389447-17.711681-0.926966-5.296951-1.423556-15.890854-1.423556-31.947237l0-74.852543-20.956063 0 0-36.515858 20.956063 0 0-34.463289 45.719311-26.815816 0 61.279105L4867.669026 791.463839z" fill="#58595B" p-id="2770"></path><path d="M4882.831549 914.816592l45.785523-7.150884c2.019463 8.806182 5.925964 15.460477 11.818823 20.062203 5.859752 4.502409 14.235557 6.819825 24.895671 6.819825 11.719505 0 20.558792-2.151886 26.550968-6.488765 3.972713-3.012641 6.025282-7.084672 6.025282-12.116776 0-3.409912-1.05939-6.356342-3.277489-8.607546-2.28431-2.151886-7.415732-4.138243-15.328053-5.992176-36.846917-8.144063-60.186609-15.493582-70.019075-22.147878-13.672755-9.302771-20.459474-22.147878-20.459474-38.70085 0-14.831464 5.925964-27.345511 17.645469-37.509036 11.785717-10.196631 30.093304-15.294947 54.922764-15.294947 23.604539 0 41.051372 3.84029 52.572241 11.487763 11.520869 7.614367 19.43319 18.903495 23.736963 33.834276l-42.772882 7.978533c-1.787721-6.621189-5.330057-11.719505-10.560797-15.261841-5.098316-3.476124-12.480941-5.296951-21.982348-5.296951-12.149882 0-20.790534 1.688403-25.988167 5.032104-3.50923 2.416734-5.230739 5.495587-5.230739 9.203453 0 3.277489 1.522873 6.025282 4.56862 8.276486 4.072031 3.012641 18.340694 7.283308 42.70667 12.778895 24.266658 5.528693 41.250008 12.282306 50.850732 20.194627 9.501406 8.110957 14.36798 19.400084 14.36798 33.834276 0 15.692218-6.621189 29.199444-19.830461 40.521677-13.209272 11.388445-32.675568 16.98335-58.498206 16.98335-23.439009 0-41.978339-4.701044-55.651094-14.103133C4896.073927 943.751188 4887.102216 930.972293 4882.831549 914.816592z" fill="#58595B" p-id="2771"></path><path d="M5221.008782 726.079597l0 87.36659c14.599722-17.181986 32.145873-25.72332 52.472924-25.72332 10.461479 0 19.830461 1.986357 28.239372 5.79354 8.375804 3.972713 14.665934 8.872393 18.936601 14.963887 4.237561 6.025282 7.150884 12.712683 8.773076 20.062203 1.555979 7.316414 2.251204 18.704859 2.251204 34.165336l0 100.807604-45.653099 0 0-90.776503c0-18.04274-0.860755-29.497397-2.582264-34.363971-1.754615-4.800362-4.767256-8.673758-9.037923-11.454657-4.336879-2.946429-9.898678-4.336879-16.354337-4.336879-7.51505 0-14.202451 1.787721-20.029097 5.495587-5.95907 3.641654-10.229737 9.170347-12.977531 16.552973-2.747793 7.415732-4.072031 18.340694-4.072031 32.774886l0 86.075458-45.785523 0 0-237.435841L5221.008782 726.046491z" fill="#58595B" p-id="2772"></path><path d="M5477.910919 908.559568l45.288933 7.581262c-5.892858 16.685397-15.063205 29.364974-27.643464 38.071837-12.547153 8.73997-28.272477 13.076848-47.27529 13.076848-29.762245 0-51.910123-9.733148-66.344315-29.298762-11.256021-15.626006-16.950244-35.324044-16.950244-59.193431 0-28.438007 7.481944-50.718308 22.379619-66.87401 14.86457-16.122595 33.768064-24.200446 56.511849-24.200446 25.624002 0 45.785523 8.475122 60.58388 25.39226 14.831464 16.784714 21.849924 42.574246 21.187805 77.401701l-114.083088 0c0.364165 13.540332 4.005819 24.034916 10.991174 31.583072 7.051566 7.481944 15.857748 11.222916 26.286121 11.222916 7.18399 0 13.109954-1.887039 18.009634-5.79354C5471.720107 923.523455 5475.361761 917.233326 5477.910919 908.559568zM5480.360759 862.840257c-0.331059-13.109954-3.707866-23.207268-10.097313-29.960881-6.588083-6.886037-14.434192-10.262843-23.703857-10.262843-9.931784 0-18.20827 3.608548-24.597718 10.85875-6.521871 7.18399-9.700042 16.98335-9.534512 29.39808L5480.360759 862.873363z" fill="#58595B" p-id="2773"></path><path d="M5606.659941 963.515438l-45.752417 0 0-171.985387 42.408716 0 0 24.432188c7.217096-11.520869 13.705861-19.135236 19.466296-22.77689 5.859752-3.608548 12.381624-5.462481 19.764249-5.462481 10.329055 0 20.327051 2.880217 29.960881 8.541334l-14.103133 39.660923c-7.680579-4.965892-14.732146-7.481944-21.287123-7.481944-6.389447 0-11.818823 1.721509-16.255019 5.263845-4.403091 3.476124-7.846109 9.865572-10.395267 19.035919-2.582264 9.203453-3.807184 28.404901-3.807184 57.604345L5606.659941 963.515438z" fill="#58595B" p-id="2774"></path><path d="M5791.655965 908.559568l45.255827 7.581262c-5.727329 16.685397-14.996993 29.364974-27.610359 38.071837-12.580259 8.73997-28.239372 13.076848-47.175972 13.076848-29.861563 0-52.00944-9.733148-66.377421-29.298762-11.355339-15.626006-17.016456-35.324044-17.016456-59.193431 0-28.438007 7.481944-50.718308 22.412725-66.87401 14.86457-16.122595 33.701853-24.200446 56.544955-24.200446 25.524684 0 45.752417 8.475122 60.550774 25.39226 14.732146 16.784714 21.783712 42.574246 21.187805 77.401701l-114.016876 0c0.264848 13.540332 3.972713 24.034916 10.958068 31.583072 7.084672 7.481944 15.791536 11.222916 26.253015 11.222916 7.117778 0 13.109954-1.887039 17.976528-5.79354C5785.432047 923.523455 5789.239231 917.233326 5791.655965 908.559568zM5794.138911 862.840257c-0.397271-13.109954-3.707866-23.207268-10.229737-29.960881-6.488765-6.886037-14.334874-10.262843-23.604539-10.262843-9.96489 0-18.175164 3.608548-24.630823 10.85875-6.488765 7.18399-9.666936 16.98335-9.567618 29.39808L5794.138911 862.873363z" fill="#58595B" p-id="2775"></path><path d="M5899.647559 802.521225 5899.647559 730.979276l-26.848922 0 0-9.534512 64.357958 0 0 9.534512-26.749604 0 0 71.575054L5899.647559 802.554331z" fill="#58595B" p-id="2776"></path><path d="M5953.378508 802.521225l0-81.109566 15.990172 0 19.300766 57.339498c1.787721 5.296951 3.012641 9.302771 3.873396 12.017458 0.926966-2.913323 2.383628-7.316414 4.336879-13.010637l19.698038-56.346319 14.36798 0 0 81.109566-10.395267 0 0-67.867188-23.703857 67.867188-9.700042 0-23.372798-68.727943 0 68.727943L5953.378508 802.521225z" fill="#58595B" p-id="2777"></path><path d="M5872.798637 938.156283l29.629821 0 0 29.530503-29.629821 0 0-29.530503Z" fill="#58595B" p-id="2778"></path></svg>
