<?xml version="1.0" standalone="no"?><!DOCTYPE svg PUBLIC "-//W3C//DTD SVG 1.1//EN" "http://www.w3.org/Graphics/SVG/1.1/DTD/svg11.dtd"><svg t="1743565784648" class="icon" viewBox="0 0 1024 1024" version="1.1" xmlns="http://www.w3.org/2000/svg" p-id="2935" xmlns:xlink="http://www.w3.org/1999/xlink" width="200" height="200"><path d="M0 0h1024v1024H0V0z" fill="#FFFFFF" p-id="2936"></path><path d="M625.058831 518.92739c-1.880595-0.371869-4.117122-1.492789-5.997717-2.985578-17.212227-16.850983 4.876798-36.320986 29.956712-47.551432v-31.82137c5.987092 3.368072 8.983295 3.745253 9.360476 4.494303l19.464691-19.470003-6.358961-16.468489c56.529415-19.841873 79.362178-27.332379 125.399572-35.194754l-8.228932-7.857063 13.838843-7.857063c30.70045 10.476084 59.897487 13.100417 54.659445 39.301252 1.492789-17.594721-20.213742-24.330864-53.899769-34.06321l-6.369587 4.117122 12.356679 10.104215c-55.031314 9.737658-89.094524 20.590923-129.532632 34.817573l5.615224 14.226649-20.213742 20.213742c3.373384 0.754363 38.568138 13.10573 75.245056-13.100418 0.371869 0 0.759675-0.371869 0.759675-0.74905-1.131545-1.86997-3.373384-3.745253-6.369586-6.364274 10.481396 0.749051 17.594721 10.481396 16.101932 20.213742h-4.876798c0.759675-2.99089 0-6.741456-1.492789-8.983295-28.076117 20.962792-61.395588 23.958995-89.471705 14.226649v24.708045c-13.477599 4.866173-38.185644 19.83656-37.808462 34.440391 0.743738 7.108012 4.488991 9.732346 7.862375 11.602316z" p-id="2937"></path><path d="M740.354189 512.563116c-30.689825 15.719438-59.886862 28.076117-104.813962 29.946087-58.394073-1.12092-67.75455-40.427483-40.050302-81.60933 26.200834-41.553716 67.75455-78.61844 134.016311-102.200253 19.092822-6.741456 47.540808-14.603831 74.496005-14.9757 39.301251-0.371869 77.115026 11.979497 74.873187 49.78796-1.492789 28.83048-43.051817 69.629833-64.76366 99.204051-9.360476 12.728548-10.853265 20.968105 4.866173 20.219054 58.022204-3.745253 110.43981-23.958995 159.101538-44.927099-32.94229 22.466206-203.284899 107.810164-204.018013 49.41609 0.361244-7.118637 3.734628-14.9757 8.97267-23.215256 5.625848-8.234244 13.10573-17.217539 20.968105-25.828965 11.602316-13.477599 40.432796-45.293656 49.793272-64.76366 16.468489-36.310361-20.224367-38.185644-51.296685-49.410778l-13.838843 7.857062 8.228932 7.857063c-46.037394 7.857063-68.87547 15.347569-125.399573 35.194754l6.358962 16.468489-19.464691 19.470003c-0.371869-0.754363-3.373384-1.126232-9.360477-4.494303v31.82137c-25.079915 11.230447-47.168939 30.695138-29.956712 47.551433 1.880595 1.492789 4.117122 2.613709 5.997717 2.985577 31.061695 17.605346 115.290045-6.353649 115.290046-6.353649z m-515.484945 86.847372v-19.092822h28.076117v19.092822h-28.076117z m0.749051 78.990309v-68.508913h26.206146v68.508913H225.618295z m309.586337-35.938492c0-6.358962-1.492789-11.225134-4.855548-14.970388-3.373384-3.745253-8.239557-5.615223-13.849468-5.615223h-0.371869c-5.992405 0.371869-10.486709 1.86997-13.860093 5.615223-3.362759 3.745253-4.86086 8.983295-4.86086 15.730063 0 6.736143 1.498101 11.974185 4.86086 15.719438 3.373384 3.745253 7.867688 5.238042 13.860093 5.238042 5.987092 0 10.853265-1.86997 14.226649-5.615223 3.357447-3.745253 4.850236-9.360476 4.850236-16.101932z m-19.082197-32.947602a50.717633 50.717633 0 0 1 10.853265-1.12092c10.853265 0 19.464691 2.996202 25.823653 9.360476 5.997717 6.369586 9.360476 14.970387 9.360476 25.834278 0 11.602316-2.985578 20.585611-9.360476 26.944572-5.987092 6.369586-14.598518 9.732346-25.451784 9.732346-3.745253 0-7.490506-0.749051-11.225134-1.492789l-5.620536-2.241839c-4.866173-2.624333-9.360476-5.997717-13.100417-10.863891v7.490507c0 1.880595-0.377182 3.745253-0.754363 5.238041h-26.206147c0.377182-2.624333 0.377182-5.238042 0.754363-7.862375 0-2.613709 0.377182-5.238042 0.377182-7.479881v-82.735562h25.828965v39.301251c4.117122-3.734628 8.606113-6.736143 13.477598-8.600801 1.875283-0.743738 3.362759-1.126232 5.243355-1.503413z m297.984021 8.611425c13.849468 0 25.079915 11.612941 25.079914 25.462409s-11.225134 25.079915-25.079914 25.079914-25.451784-11.225134-25.451784-25.079914 11.602316-25.462408 25.451784-25.462409z m0 62.144639c20.213742 0 36.687543-16.468489 36.687543-36.676918 0-20.596236-16.479113-37.064724-36.687543-37.064724-20.224367 0-37.064724 16.468489-37.064724 37.064724 0.005312 20.208429 16.840358 36.676918 37.064724 36.676918z m-134.770674-12.346054h11.612941v10.481396h-11.612941v-10.481396z m88.350785 1.864658c-3.745253 2.996202-11.225134 10.481396-25.823652 10.481396-18.71564 0-36.687543-14.598518-36.687543-36.676918 0-22.089024 17.971902-37.064724 36.687543-37.064724 13.849468 0 22.0784 7.479881 25.823652 10.481396-2.241839 3.373384-4.117122 9.360476-4.866172 11.974185-7.108012-9.360476-15.719438-10.853265-20.95748-10.853265-13.849468 0-25.090539 11.612941-25.09054 25.462408 0 13.477599 11.235759 25.079915 25.09054 25.079915 7.857063 0 15.347569-3.373384 20.95748-10.853266 1.492789 5.98178 3.745253 9.727033 4.866172 11.968873z m99.57592 8.611426v-68.508913h10.481396v9.732346c2.252464-3.362759 5.248667-5.987092 8.611426-8.228932a27.252693 27.252693 0 0 1 12.356679-2.996203c4.866173 0 8.983295 1.12092 12.356679 2.996203 3.362759 2.241839 5.615223 5.238042 7.108012 8.983295 5.238042-7.862375 12.356679-11.98481 20.968105-11.98481 6.736143 0 11.974185 1.880595 15.719438 5.615223 3.745253 3.745253 5.615223 9.732346 5.615224 17.594721v46.79707h-11.602316v-43.051817c0-4.866173-0.371869-7.862375-1.12092-10.104215a10.359211 10.359211 0 0 0-4.127747-4.866172 14.216024 14.216024 0 0 0-7.108012-1.869971c-4.866173 0-8.611426 1.482164-11.98481 4.855548-2.985578 2.996202-4.855548 8.239557-4.855548 15.358194v39.678433h-11.612941v-44.544606c0-5.238042-0.749051-8.983295-2.624333-11.61294-1.86997-2.624333-5.238042-3.734628-9.360477-3.734629-3.362759 0-6.358962 0.738426-8.97267 2.613709-2.996202 1.492789-4.876798 4.117122-5.997717 7.490506-1.492789 3.362759-1.86997 8.228932-1.86997 14.216024v35.566623h-11.979498v0.005313z m88.722655-83.484613v-13.105729h-4.866173v-1.492789h11.98481v1.492789h-4.866173v13.105729h-2.252464z m8.988607 0v-14.598518h2.996203l3.362759 10.481396c0.382494 0.759675 0.382494 1.503414 0.759675 1.880595 0-0.371869 0.371869-1.12092 0.749051-2.252464l3.373384-10.104215h2.613708v14.598519h-1.875282v-12.346054l-4.117123 12.346054h-1.880595l-4.106497-12.346054v12.346054h-1.875283v-0.005313z m-334.676876 73.380398c-2.624333 4.117122-6.746768 6.746768-12.356679 8.983295-1.12092 0.371869-2.613709 0.749051-3.745253 1.12092a64.758347 64.758347 0 0 1-15.719438 1.86997c-8.611426 0-15.347569-1.86997-20.213742-5.615223-4.494304-3.362759-7.118637-8.611426-7.118637-15.347569 0-4.117122 1.12092-7.862375 2.996202-11.225135 1.86997-2.996202 4.494304-5.625848 7.857063-7.862375 2.624333-1.880595 6.746768-2.996202 11.612941-3.745253 4.494304-0.749051 11.235759-1.12092 20.585611-1.12092h15.719438v-1.880595c0-3.734628-1.12092-6.736143-3.362759-8.600801-2.241839-1.880595-5.238042-2.996202-9.360477-2.996202-1.12092 0-2.252464 0.371869-2.996202 0.371869-3.362759 0-5.987092 0.749051-7.857063 1.880595-2.252464 1.12092-3.745253 3.362759-4.117122 6.358962h-26.583328c0.749051-7.490506 4.866173-13.10573 11.602316-16.850983 5.997717-3.362759 14.981012-4.866173 26.955197-5.238042h3.373384c12.728548 0 22.466206 2.252464 28.447986 6.369587 5.987092 4.106497 8.983295 10.853265 8.983295 19.83656v34.81226c0 1.880595 0.371869 3.745253 0.371869 5.238042 0.371869 1.12092 0.749051 2.624333 1.12092 3.745253h-24.330864c-0.749051-1.12092-1.12092-2.624333-1.492789-4.117122 0-1.12092-0.371869-2.985578-0.371869-4.494304v-1.492789z m-16.101932-3.001515c4.494304-0.371869 8.239557-1.86997 10.86389-4.106497 2.985578-2.624333 4.855548-6.746768 4.855548-11.612941v-1.492789h-2.24184c-5.238042 0-9.732346 0-13.477598 0.37187-4.106497 0.371869-7.108012 0.749051-9.349852 1.86997-4.117122 1.12092-6.369586 3.745253-6.369586 7.490506 0 2.241839 1.12092 4.106497 3.373384 5.615223 2.241839 1.12092 5.615223 1.86997 9.732345 1.869971l2.613709-0.005313z m-185.29706 3.001515c-2.996202 4.117122-7.113325 6.746768-12.728548 8.983295-1.12092 0.371869-2.247152 0.749051-3.745253 1.12092-4.488991 1.12092-9.732346 1.86997-15.719438 1.86997-8.611426 0-15.347569-1.86997-19.841872-5.615223-4.866173-3.362759-7.108012-8.611426-7.108013-15.347569 0-4.117122 0.743738-7.862375 2.619021-11.225135 1.86997-2.996202 4.488991-5.625848 7.862375-7.862375 2.99089-1.880595 6.736143-2.996202 11.602316-3.745253 4.494304-0.749051 11.230447-1.12092 20.590924-1.12092h15.72475v-1.880595c0-3.734628-1.12092-6.736143-3.368071-8.600801-2.247152-1.880595-5.243354-2.996202-9.360477-2.996202-1.12092 0-1.86997 0.371869-2.996202 0.371869-3.368072 0-5.987092 0.749051-7.862376 1.880595-2.241839 1.12092-3.362759 3.362759-4.117122 6.358962h-26.578016c1.126232-7.490506 4.871485-13.10573 11.607629-16.850983 6.358962-3.362759 15.347569-4.866173 26.949885-5.238042h3.373384c12.728548 0 22.460894 2.252464 28.447986 6.369587 5.987092 4.106497 9.360476 10.853265 9.360476 19.83656v40.050302c0.371869 1.12092 0.749051 2.624333 1.12092 3.745253h-24.336177a7.54363 7.54363 0 0 1-1.126232-4.117122c-0.366557-1.12092-0.366557-2.985578-0.366556-4.494304v-1.492789h-0.005313z m-16.479113-3.001515c4.871485-0.371869 8.234244-1.86997 10.858577-4.106497 3.368072-2.624333 4.866173-6.746768 4.866173-11.612941v-1.492789h-2.247152c-5.243354 0-9.732346 0-13.477598 0.37187-3.745253 0.371869-6.741456 0.749051-8.983295 1.86997-4.494304 1.12092-6.364274 3.745253-6.364274 7.490506 0 2.241839 1.12092 4.106497 2.99089 5.615223 2.252464 1.12092 5.615223 1.86997 10.109527 1.869971l2.247152-0.005313z m-78.984997-22.832762c0-6.358962-1.498101-11.225134-4.871485-14.970388-3.368072-3.745253-7.857063-5.615223-13.844155-5.615223-6.364274 0.371869-10.858578 1.86997-14.22665 5.615223-3.373384 3.745253-4.871485 8.983295-4.871485 15.730063 0 6.736143 1.498101 11.974185 4.871485 15.719438 3.368072 3.745253 8.234244 5.238042 13.849468 5.238042h0.371869c5.987092 0 10.481396-1.86997 13.844156-5.615223 3.378696-3.745253 4.876798-9.360476 4.876797-16.101932z m-18.71564-32.947602a47.349561 47.349561 0 0 1 10.481396-1.12092c10.858578 0 19.470004 2.996202 25.828965 9.360476 6.358962 6.369586 9.360476 14.970387 9.360476 25.834278 0 11.602316-2.996202 20.585611-8.977982 26.944572-6.369586 6.369586-14.603831 9.732346-25.462409 9.732346-4.117122 0-7.857063-0.749051-11.225134-1.492789a43.290876 43.290876 0 0 1-5.615223-2.241839c-5.243354-2.624333-9.732346-5.997717-13.10573-10.863891v2.252465c0 1.86997 0 3.373384-0.377181 5.238042 0 1.880595-0.371869 3.745253-0.371869 5.238041h-26.578016c0.377182-2.624333 0.749051-5.238042 0.74905-7.862375 0.377182-2.613709 0.377182-5.238042 0.377182-7.479881v-82.735562h26.206147v39.301251a38.010334 38.010334 0 0 1 13.105729-8.600801c1.859345-0.743738 3.729316-1.126232 5.604599-1.503413z m-204.028638-29.197037h19.092822l47.91799 98.083131h-31.444188l-8.611426-19.83656H84.11679l-9.355164 19.83656H45.176783l51.291374-98.083131h14.221336z m0 59.153749h17.971903l-16.850983-37.808463-1.12092 1.86997-17.600033 35.943805h17.600033v-0.005312z m71.505116 38.929382v-98.083131h26.206146v98.083131h-26.206146zM114.434747 437.31806h-6.736144v26.206147h13.854781V437.31806h-7.118637z m374.355309 57.278466h12.728548c4.117122 0 7.113325-1.126232 8.234244-3.373384 1.498101-1.86997 2.619021-6.741456 3.745253-14.221337 2.624333 3.368072 6.736143 5.615223 11.225135 6.364274-2.613709 9.732346-5.238042 15.352881-7.479882 16.845671-2.247152 1.86997-6.364274 2.619021-12.728548 2.619021H446.48729c-10.853265 0-16.09662-4.488991-16.09662-13.477599V424.212331c0-4.866173-0.371869-10.481396-0.749051-16.845671h81.981199c-0.371869 6.741456-0.371869 15.72475-0.371869 26.955198s0 20.213742 0.371869 27.332378h-9.727033v-7.490506H439.751147v30.323269c0 6.741456 3.745253 10.109527 10.858577 10.109527h38.180332z m0-49.044222h13.105729v-29.574218h-26.583328v29.574218h13.477599z m-35.561311 0h13.100417v-29.574218h-26.578015v29.574218h13.477598z m-86.103633 49.044222h12.728548c4.117122 0 7.113325-1.126232 8.234244-3.373384 1.503414-1.86997 2.619021-6.741456 3.745253-14.221337 2.996202 3.368072 6.746768 5.615223 11.230447 6.364274-2.619021 9.732346-5.238042 15.352881-7.485194 16.845671-2.247152 1.86997-6.369586 2.619021-12.728548 2.619021H324.822345c-10.853265 0-16.09662-4.488991-16.096619-13.477599V424.212331c0-4.866173-0.377182-10.481396-0.377182-16.845671h81.614643c-0.371869 6.741456-0.371869 15.72475-0.371869 26.955198s0 20.213742 0.371869 27.332378h-9.732346v-7.490506H318.08089v30.323269c0 6.741456 3.745253 10.109527 10.858578 10.109527h38.185644z m0-49.044222h13.105729v-29.574218H353.647513v29.574218h13.477599z m-35.566624 0h13.10573v-29.574218h-26.583328v29.574218h13.477598z m-86.098321 49.416091h19.470004c5.238042-0.371869 10.853265-0.371869 17.217539-0.371869v8.983295a145.847061 145.847061 0 0 0-17.217539-1.126232H193.796925c-5.615223 0-12.356679 0.371869-19.464692 1.126232v-8.983295c7.485194 0 13.844155 0 19.464692 0.371869h28.825167v-15.719438H201.287431c-4.494304 0-10.109527 0-16.473801 0.371869v-8.611426c6.364274 0.371869 11.979497 0.749051 16.473801 1.126233h21.339974v-13.477599h-35.571936c0.377182-6.364274 0.754363-14.226649 0.754363-23.209944 0-8.611426 0-18.71564-0.754363-29.197037h81.614642c-0.377182 6.364274-0.377182 15.347569-0.377181 26.206147 0 10.853265 0 19.83656 0.377181 26.206146h-37.064724v13.477599h22.832763a607.580983 607.580983 0 0 1 16.84567-1.126232v8.611426c-6.741456-0.371869-12.351366-0.371869-16.84567-0.371869h-22.832763v15.719438h13.85478v-0.005313z m0-43.423686h13.849468v-14.975699h-27.704248v14.975699h13.85478z m0-21.717155h13.849468v-16.468489h-27.704248v16.473801h13.85478v-0.005312z m-35.566623 21.717155h12.728548v-14.975699h-25.457096v14.975699h12.728548z m0-21.717155h12.728548v-16.468489h-25.457096v16.473801h12.728548v-0.005312z m-95.458797 41.930897h-6.736144v11.607628h-8.988607c0.377182-4.866173 0.377182-13.849468 0.377182-26.955197s0-22.089024-0.377182-26.955197h31.82137c-0.371869 5.987092-0.371869 14.226649-0.371869 24.708045 0 10.481396 0 18.71564 0.371869 24.702733h-8.977982v-7.108012h-7.118637z m0-58.027517h25.457096v74.129449c0 3.739941-0.749051 5.987092-2.619021 6.736143-1.492789 0.371869-5.243354 0.749051-10.858578 0.749051 2.252464 3.368072 3.373384 7.108012 4.117122 10.853265 6.741456-0.749051 11.230447-1.86997 14.226649-3.368071 2.996202-1.498101 4.117122-5.243354 4.117122-11.607629V413.730934c2.996202 0 7.490506 0 13.100418 0.377182V405.124821c-5.987092 0.371869-10.104215 0.371869-11.979498 0.371869h-41.176534c-3.745253 0-8.234244 0-14.226649-0.371869v8.983295c7.108012-0.377182 11.979497-0.377182 14.226649-0.377182h5.615224z m-41.930898 28.825168c6.369586 9.360476 10.109527 16.09662 11.230447 20.585611 1.12092 4.871485 0.754363 7.862375-1.12092 8.988607-1.86997 1.12092-5.620536 2.241839-10.858577 2.99089 1.875283 3.368072 3.373384 6.741456 4.117122 10.104215a35.619747 35.619747 0 0 0 12.728548-5.615224c3.745253-2.99089 5.615223-7.108012 5.238042-13.100417-0.754363-5.615223-4.494304-13.849468-12.351367-24.708045 3.745253-12.351366 7.113325-24.336176 10.481397-36.310361h-33.686028c0.371869 6.364274 0.371869 22.460894 0.371869 47.54612 0 25.457096 0 43.051817-0.371869 53.156032h9.732345V413.730934H80.748719c-3.001515 11.230447-5.620536 20.968105-8.24487 28.825168z" fill="#D9783E" p-id="2938"></path></svg>
